<?xml version="1.0" encoding="utf-8"?>
<!-- Generator: Adobe Illustrator 12.0.0, SVG Export Plug-In . SVG Version: 6.00 Build 51448)  -->
<!DOCTYPE svg PUBLIC "-//W3C//DTD SVG 1.1//EN" "http://www.w3.org/Graphics/SVG/1.1/DTD/svg11.dtd" [
	<!ENTITY ns_svg "http://www.w3.org/2000/svg">
	<!ENTITY ns_xlink "http://www.w3.org/1999/xlink">
]>
<svg  version="1.1" id="Vrstva_1" xmlns="&ns_svg;" xmlns:xlink="&ns_xlink;" width="323.831" height="374.883"
	 viewBox="0 0 323.831 374.883" overflow="visible" enable-background="new 0 0 323.831 374.883" xml:space="preserve">
<path fill-rule="evenodd" clip-rule="evenodd" fill="#FFFFFF" d="M3.55,3.623h316.731v189.312
	c-5.278,99.744-64.971,167.734-160.806,178.32C62.021,355.378,8.826,296.753,3.55,191.714V3.623"/>
<path fill-rule="evenodd" clip-rule="evenodd" fill="#00AA00" d="M320.281,115.989v76.946
	c-5.278,99.744-64.971,167.734-160.806,178.32C62.021,355.378,8.826,296.753,3.55,191.714v-74.866L59.226,4.553l52.234,105.701
	L162.891,5.625l50.076,103.889L266.379,5.313l52.749,108.228v0.005L320.281,115.989"/>
<path fill-rule="evenodd" clip-rule="evenodd" d="M221.13,111.36c-9.199,2.82-18.843,5.339-28.34,7.119
	c-6.826,1.335-12.91,4.304-18.252,8.904l-3.12,2.671c-2.075,0.295-4.077,0.74-5.933,1.116c-8.831,0.889-19.365,1.855-27.896,4.675
	c-2.595,1.035-4.451,3.704-6.824,5.559c-8.386,7.124-18.325,10.166-27.676,15.586c-5.12,3.188-9.719,7.043-14.246,11.123
	c-4.524,2.747-9.5,5.195-14.619,7.051c-5.635,1.931-8.381,5.046-7.419,11.282c-0.591,7.263,4.973,8.455,10.54,10.015
	c0.664,0.068,1.404,0.144,2.075,0.144c-3.115,0.964-6.086,2.375-8.979,4.451c-2.817,2.673-4.546,5.945-1.777,8.65
	c2.905,2.834,7.122-0.635,11.721-4.346l0.3-0.295c-0.671,2.227,0.295,4.231,2.444,6.455c4.971,1.931,9.202,1.484,14.246,0.146
	c4.824-1.851,8.679-2.822,13.801-2.302c4.968,0.82,8.904,3.711,14.175,3.936l4.819,5.19l5.564,3.044l2.52-1.108l3.342,2.964
	l2.744-1.335c1.78,1.487,1.45,1.516,2.339,3.516c4.082,9.5-11.233,12.854-16.355,17.6c-1.484,1.561-5.615,7.476-4.873,9.775
	c-3.635,1.184-4.771,6.079-4.697,9.346c-3.784,2.08-6.133,5.965-5.393,10.269c-3.115,1.04-4.8,8.086-3.76,10.905
	c-2.747,2.376-3.066,7.415-5.071,10.379l-2.224,2.212l4.124,0.364l0.056,0.49c-3.486,1.255-3.186,4.461-2.725,8.296
	c-3.926,0.378-2.627,6.772-1.24,10.303c-0.151,2.376-0.046,2.946,0.625,5.022l-1.35,4.758c9.495,7.271,21.255,15.252,32.979,18.145
	l3.335,0.891c13.21,2.444,27.085,2.967,40.293-0.295c12.241-2.969,23.442-8.091,33.979-14.689c-1.04-9.424-1.855-18.994-1.04-28.421
	c1.187-13.499,3.706-26.704,6.382-39.915c2.739-13.725,7.568-27.304,8.682-41.325c1.26-12.834,1.631-27.08-1.484-39.839
	c-1.929-7.939-3.364-15.854-7.002-23.201l-1.602-1.509c2.07,0,4.077,0,6.152-0.146c7.642-0.964,13.062-4.08,18.77-8.979
	l13.784-15.793l9.741-7.966c0.483-1.455,0.513-2.759,0.068-3.909c0.352-1.606-12.959,0.388-20.771-0.227
	c-4.6-0.22-9.346-0.593-14.023-0.889c0.449-0.076,0.894-0.076,1.26-0.076l4.849-6.704l-1.431-2.791
	C231.521,108.389,226.033,109.28,221.13,111.36"/>
<path fill-rule="evenodd" clip-rule="evenodd" fill="#FFFFFF" d="M154.932,158.433c-2.307-2.458-4.846-4.07-7.546-4.919
	c-2.859-0.759-5.479-0.845-7.781,2.122c-1.113,2.124-1.113,3.984,0,5.935c2.461,1.948,5,2.544,7.307,2.715
	c2.62-0.171,5.239-1.187,7.778-3.22C155.566,159.958,155.959,158.86,154.932,158.433 M166.207,158.945
	c-3.812,0-7.547-0.342-11.116-2.036c-2.62-2.375-4.844-3.645-7.939-5c-5.005-1.106-8.34,1.44-10.486,6.355l-9.844,4.58
	c-3.655-0.085-5.4,0.425-5.881,1.44c-1.108,1.523-0.869,2.629,0.481,3.645c1.98,1.099,3.809-0.171,5.239-2.715
	c3.73-1.946,6.75-3.391,10.4-5.342c1.116,2.971,3.816,4.666,6.194,5.425c2.7,0.596,5.481,0.51,8.262-0.254
	c2.778-1.694,4.128-3.391,5.64-5.085C160.491,159.79,163.111,159.619,166.207,158.945z M147.737,220.103
	c3.77,0.291,5.359,2.756,7.969,5.361h-2.319c-1.88-2.534-3.406-3.911-6.086-3.621c2.322,3.04,2.825,6.594,0.801,10.361
	c-2.9,3.403-6.814,6.45-12.466,9.204c-4.634,2.461-7.029,6.375-8.479,11.01c3.694-0.795,7.319-2.025,10.945-3.695
	c-3.916,2.465-7.976,4.274-12.029,5.656c-2.39,1.665-3.406,3.908-3.191,7.168l9.639-3.623l-11.228,5.869
	c-2.686,1.885-3.916,4.565-3.992,8.045c2.686-0.145,5.581-2.029,8.335-2.969c-2.463,2.023-5.435,3.764-9.634,5.215
	c-1.741,1.084-2.61,3.913-2.681,8.479l8.696-4.061c-5.945,3.115-9.497,5.65-10.581,7.682c-1.016,4.203-1.809,5.793-3.406,8.115
	c3.911-0.146,8.115-3.191,11.88-5.872l-9.343,7.321c-2.466,2.679-3.987,5.436-3.047,8.33c2.61-1.016,5.291-2.895,7.756-4.709
	c-2.9,2.83-5.725,5.22-8.84,6.447c-1.45,2.322-1.521,4.713-0.51,7.176c2.756-1.594,5.366-3.479,7.83-5.725
	c-2.463,3.262-5,5.795-7.678,7.321c-0.366,1.665,0.793,2.825,1.155,4.271l-0.361,4.857c13.55,10.361,29.126,17.757,47.82,18.772
	c20.068,1.013,38.984-4.565,56.372-15.286c-1.592-10.944-1.519-25.01,0.146-36.602c1.885-16.518,6.162-33.913,10.293-50.358
	c3.696-11.885,5-24.636,5.22-37.896c0.796-15.364-2.393-30.859-9.634-46.15l-13.848-3.115c-4.565-1.594-7.681,1.885-9.854,7.605
	c0.649-5.139,3.906-8.95,8.691-9.89c5.142,1.597,10.864,2.81,16.299,2.957c8.838,0.503,17.695-4.832,23.931-10.701
	c3.887-4.431,5.928-7.17,11.353-12.834l10.522-8.196l0.151-1.75l-3.926,0.22c-6.157,0.366-11.958,0.635-17.246-0.09
	c-7.173-0.435-14.346-0.869-21.445-1.299c-6.665,0.286-13.115,1.951-19.346,4.924l-14.497,9.49
	c-2.319,2.39-7.241,5.581-11.084,7.246c-2.319,0.579-4.419,0.22-6.807-1.086c2.388,0.222,4.854,0.222,7.1-0.144l10.874-7.18
	c-6.377-2.754-15.22-1.226-23.052,0.874c-21.88,2.175-29.995,4.785-28.979,5.872c-7.9,7.463-14.634,11.16-22.605,14.49
	c-8.191,3.406-15.725,8.84-22.754,15.435c-5.215,3.262-10.796,5.872-16.956,7.896c-3.186,1.741-5,4.351-4.055,8.916
	c-0.291,2.244,0.291,4.199,1.809,5.869c4.421,2.534,8.772,3.259,12.9,2.896c7.695-0.996,16.321-1.611,21.082,1.523
	c-6.88,1.155-13.835,3.477-21.082,6.086c-2.104,2.458-1.814,4.78,0.72,7.1c4.351,1.809,8.625,1.084,12.756,0
	c6.738-2.971,13.618-3.479,20.215-0.435c2.754,1.519,5.503,1.956,8.044,2.029l4.924,5.286l4.709,2.539l2.61-1.233l3.262,2.974
	l2.678-1.235l1.812,1.521v-0.505h0.869L147.737,220.103z"/>
<path fill-rule="evenodd" clip-rule="evenodd" fill="#FFFFFF" d="M230.916,115.989l5.078-5.186l-2.764-0.825
	c-5.049,0.596-10.244,2.051-15.508,3.967c-6.533,1.843-11.372,3.428-20.986,5.408c-8.149,0.796-17.656,5.125-21.592,9.951
	c5.405-0.62,10.571-0.73,15.278-0.12c6.646-4.927,11.333-6.807,12.559-7.52C212.385,118.035,221.721,116.58,230.916,115.989"/>
<path fill-rule="evenodd" clip-rule="evenodd" fill="#FFEB00" d="M88.04,195.488c-5.525,0.706-10.588,2.341-15.198,5.042
	c-2.781,2.1-4.202,4.568-4.116,7.395c1.47,1.57,3.74,1.37,6.516-0.806c2.263-2.69,5.674-5.151,8.96-7l15.215-4.636
	C95.415,194.863,91.506,194.915,88.04,195.488"/>
<path fill-rule="evenodd" clip-rule="evenodd" d="M89.38,177.449c-2.5,2.136-5.005,3.53-7.649,4.341
	c-2.209,0.369-4.189,1.104-5.886,2.5c-0.144,1.47,1.03,2.205,3.53,2.424l1.326-0.22c2.134-1.025,4.265-2.72,5.955-4.924
	C88.201,180.244,89.084,178.848,89.38,177.449"/>
<path fill-rule="evenodd" clip-rule="evenodd" d="M150.085,158.945c-1.431,0.759-2.859,1.27-4.209,1.609
	c-0.715-1.694-0.791-3.306-0.156-4.919c-0.715-0.166-1.194-0.93-2.224-0.591c-1.35,1.27-1.75,2.964-1.035,4.915
	c0.715,1.191,1.67,1.694,3.02,1.951C147.625,161.653,148.975,160.554,150.085,158.945"/>
<path fill-rule="evenodd" clip-rule="evenodd" fill="#EEEEEE" d="M148.545,168.76c7.266-0.767,9.536-8.066,21.169-6.89v-0.996
	c-14.668-1.416-12.363,5.586-23.323,7.219L148.545,168.76"/>
<path fill-rule="evenodd" clip-rule="evenodd" fill="#EEEEEE" d="M140.237,239.868c5.269-3.545,10.334-8.408,11.953-14.18
	c31.914,0.261,40.82-22.38,35.859-44.98c5.308,13.291,10.322,30.977-18.843,48.831c-4.895,3.105-10.43,4.924-16.411,5.872
	C150.229,238.384,144.966,239.6,140.237,239.868"/>
<path fill-rule="evenodd" clip-rule="evenodd" fill="#EEEEEE" d="M128.926,250.999c3.13-7.151,7.954-8.67,12.869-5.096
	L128.926,250.999"/>
<path fill-rule="evenodd" clip-rule="evenodd" fill="#EEEEEE" d="M124.097,259.854c3.13-7.153,7.959-8.675,12.874-5.101
	L124.097,259.854"/>
<path fill-rule="evenodd" clip-rule="evenodd" fill="#EEEEEE" d="M117.925,271.118c1.792-7.69,7.961-9.48,12.876-5.898
	L117.925,271.118"/>
<path fill-rule="evenodd" clip-rule="evenodd" fill="#EEEEEE" d="M114.68,281.309c-1.255-6.81,5.972-9.47,12.1-6.724L114.68,281.309
	"/>
<path fill-rule="evenodd" clip-rule="evenodd" fill="#EEEEEE" d="M122.91,283.284c-5.269-4.495-12.266,3.649-12.949,10.334
	C116.067,290.62,121.816,286.279,122.91,283.284"/>
<path fill-rule="evenodd" clip-rule="evenodd" fill="#EEEEEE" d="M106.802,310.874c-2.832-5.07,5.654-8.449,11.189-8.201
	C114.612,307.52,109.412,310.313,106.802,310.874"/>
<path fill-rule="evenodd" clip-rule="evenodd" fill="#EEEEEE" d="M107.966,318.384c-1.917-3.42,3.809-5.705,7.549-5.535
	C113.23,316.118,109.722,318.003,107.966,318.384"/>
<path fill-rule="evenodd" clip-rule="evenodd" fill="#EEEEEE" d="M109.875,302.233c-3.279-4.795,4.866-8.926,10.4-9.174
	C117.346,298.188,112.419,301.438,109.875,302.233"/>
<path fill-rule="evenodd" clip-rule="evenodd" fill="#EEEEEE" d="M103.826,193.789l1.006-1.201l-2.007-2.803l0.801-3.206
	l0.605-2.605l-2.205,0.2l0.598-3.206l-0.798-3.206l2-0.2l4.609-1.599l3.606-1.406l-0.4-1.599l2.805,0.2v-1.201l3.406-1.204
	l-4.812-0.801l-2.803,1.001l1.204,1.003l-4.609,0.4l1.804,1.401h-4.404l0.195,1.604l-5.405-1.001l1.599,2.002l-2.8-0.4l-1.003-1.406
	l-4.407-1.399l-2.405,0.601l2.805,1.404l-1.399,0.601l3.804,1.199l-1.804,1.606l4.81,1.799l-4.409,1.604l4.409,2.8l-5.21,0.205
	l5.811,3l-10.215,0.405l-5.005,0.601l1.799-2.805c-8.411,4.739-12.549,3.069-12.419-5.005c-4.851,7.734,1.946,12.69,12.024,11.135
	C93.091,191.06,99.851,191.304,103.826,193.789"/>
<path fill-rule="evenodd" clip-rule="evenodd" fill="#EEEEEE" d="M170.378,139.714c2.266,0.181,4.58,0.164,6.704-0.181l10.874-7.18
	c-5.225-2.09-12.163-1.875-19.927,0.256l11.484,0.134C177.932,135.63,174.041,136.829,170.378,139.714 M170.251,139.824
	l-0.005-0.005c0,0,0,0,0,0.005H170.251z"/>
<path fill-rule="evenodd" clip-rule="evenodd" fill="#DADADA" d="M230.916,115.989l3.96-4.041l-0.029-0.039
	c-4.717,4.595-25.425,3.889-51.299,16.514l-0.791,0.322c2.432,0.154,4.429,0.723,6.924,0.969c6.65-4.924,12.075-7.336,13.301-8.049
	C212.385,118.035,221.721,116.58,230.916,115.989"/>
<path fill-rule="evenodd" clip-rule="evenodd" fill="#EEEEEE" d="M193.25,162.725c5.942-0.645,5.239-8.916,17.817-1.936
	c11.626,24.021,14.058,51.25,2.651,79.7c-15.713,56.126-9.341,63.196-13.77,92.751l9.78-4.795
	c-1.226-19.26-1.143-39.689,2.217-55.451c1.919-8.984,3.647-18.299,6.655-27.505c7.495-22.959,12.461-50.74-1.865-89.29
	l-13.467-2.805c-2.383-0.955-4.688-0.459-6.885,2.166C194.387,158.318,193.176,160.718,193.25,162.725"/>
<path fill-rule="evenodd" clip-rule="evenodd" fill="#EEEEEE" d="M150.62,151.238c5.776,2.842,11.196,4.917,15.86,5.315
	l-0.084,0.996c-4.626,0.249-9.96-1.77-15.69-5.066L150.62,151.238"/>
<path fill-rule="evenodd" clip-rule="evenodd" fill="#EEEEEE" d="M98.176,201.743c6.765-3.77,13.589-5.984,13.069-0.039l2.424-2.881
	l-0.759-0.454l4.126-0.781l-0.781-1.694l4.15-0.52l2.651-2.576l2.534,1.045l-3.04,1.621l-0.195,1.821l-3.477,0.215l1.24,2.344
	l-3.87-0.564l-0.149,1.514l-1.521,0.759l0.305,1.821l-1.819,0.754c7.08,1.521,9.453,5.771,21.24,4.556
	c-7.69,5.459-16.287-2.126-23.21-2.729c-4.805,0-9.609,1.208-14.417,1.819c2.476-2.48,6.172-3.745,11.077-3.794
	C109.402,198.723,106.387,199.443,98.176,201.743"/>
<path fill-rule="evenodd" clip-rule="evenodd" fill="#D0D0D0" d="M203.367,153.179l14.043,3.135
	c11.431,23.86,12.93,51.064,6.582,75.339c-6.636,26.446-11.426,48.067-13.33,65.422c-0.977,8.879-0.181,21.857,0.693,30.34
	l-4.126,2.705c-1.226-16.826-1.914-37.142,3.55-60.311c2.441-10.356,5.254-22.609,9.033-37.222
	c7.417-22.615,6.021-46.665-2.324-67.939c-1.675-4.26-3.96-7.754-12.778-9.749C204.026,154.739,203.792,153.804,203.367,153.179"/>
<path fill-rule="evenodd" clip-rule="evenodd" fill="#AFAFAF" d="M221.604,216.343l0.049,0.112l-1.099,0.483
	c-0.088-1.675-0.298-3.489-0.874-5.081l1.157-0.51C220.798,212.749,221.067,215.129,221.604,216.343"/>
<path fill-rule="evenodd" clip-rule="evenodd" fill="#AFAFAF" d="M216.868,225.549l0.342,0.435c0,0,0.679,1.946,0.786,2.166
	c0.283,1.135,0.059,2.314,0.156,3.474l-1.235-0.334c0.859-2.5-0.176-4.341-1.714-6.401l0.972-0.474l0.317,0.649l0.186,0.239
	l0.005-0.129L216.868,225.549"/>
<path fill-rule="evenodd" clip-rule="evenodd" fill="#AFAFAF" d="M215.999,232.593l0.034,0.542c0.088,1.624-0.732,3.059-1.069,4.585
	l-0.894-0.796c1.152-2.114,1.704-4.014-0.146-5.779l0.801-0.771c0.342,0.586,0.918,1.216,1.133,1.804L215.999,232.593"/>
<path fill-rule="evenodd" clip-rule="evenodd" fill="#AFAFAF" d="M218.733,219.514l0.288,0.454c0.869,1.375,0.85,3.025,1.304,4.526
	l-1.162-0.261c-0.034-2.405-0.479-4.333-2.949-4.976l0.322-1.064c0.581,0.347,1.396,0.615,1.865,1.025L218.733,219.514"/>
<path fill-rule="evenodd" clip-rule="evenodd" fill="#AFAFAF" d="M211.98,241.284l-0.049,0.239l0.039,0.664l-0.181,0.012
	l-0.112,0.125l-0.972-0.066c0.522-1.475,0.923-2.883,0.83-4.509l1.206-0.071C212.38,238.843,212.156,240.129,211.98,241.284"/>
<path fill-rule="evenodd" clip-rule="evenodd" fill="#AFAFAF" d="M207.468,244.099l1.221,0.169
	c-0.474,1.235-0.757,2.581-1.108,3.867l-1.084,0.059c0.308-0.983,0.664-2.148,0.903-3.249l-0.117,0.01l-0.044-0.721L207.468,244.099
	"/>
<path fill-rule="evenodd" clip-rule="evenodd" fill="#E5E5E5" d="M148.34,231.724c29.241-8.21,43.669-19.961,40.759-40.259
	c-4.058,19.148-15.42,30.364-37.209,30.239c1.306,1.006,2.417,2.358,3.816,3.76h-2.319c-1.88-2.534-3.406-3.911-6.086-3.621
	C149.521,224.758,150.081,228.135,148.34,231.724"/>
<path fill-rule="evenodd" clip-rule="evenodd" fill="#1C1C1C" d="M183.513,181.348c0.518-0.735,1.108-1.399,1.475-2.205l0.952,1.025
	c-0.366,0.444-0.879,1.179-1.396,1.47l-0.073,0.225l-0.366,1.25l-1.03-1.028l0.298-0.515L183.513,181.348"/>
<path fill-rule="evenodd" clip-rule="evenodd" fill="#1C1C1C" d="M185.281,186.423l-0.073,0.071l-0.664,0.735l-0.732-1.47
	c1.616-0.291,2.646-1.03,3.818-2.205l0.742,1.543l-0.957,0.222L185.281,186.423"/>
<path fill-rule="evenodd" clip-rule="evenodd" fill="#1C1C1C" d="M168.147,218.484c3.823,1.255,5.664,0.886,9.116-0.806l0.884,1.03
	c-3.896,1.25-7.139,2.72-11.03,0.439c-0.371-0.144-0.887-0.515-1.25-0.735l0.955-1.104l0.588,0.659L168.147,218.484"/>
<path fill-rule="evenodd" clip-rule="evenodd" fill="#1C1C1C" d="M174.099,214.883c3.608,0.662,5.371,0.737,7.871-2.28l0.957,1.03
	c-4.116,2.571-5.298,3.97-10.151,1.76l-1.616-0.51l0.879-1.543C172.629,214.294,173.22,214.514,174.099,214.883"/>
<path fill-rule="evenodd" clip-rule="evenodd" fill="#1C1C1C" d="M179.25,211.938c1.909-0.586,4.043-1.545,5.591-2.939l1.03,0.955
	c-4.341,2.28-5.742,3.679-10.664,2.424l1.172-0.955C177.629,211.938,177.927,211.938,179.25,211.938"/>
<path fill-rule="evenodd" clip-rule="evenodd" fill="#1C1C1C" d="M179.104,209.37v-0.742c4.268,0.667,7.061-1.538,8.457-5.583
	l1.03,0.955c-2.427,4.265-4.414,5.735-9.414,5.884L179.104,209.37"/>
<path fill-rule="evenodd" clip-rule="evenodd" fill="#1C1C1C" d="M185.427,202.529c0,0,3.896-0.295,3.164-4.121h1.323
	c-0.151,4.485-1.987,4.561-5.737,5.444v-1.255h0.811L185.427,202.529"/>
<path fill-rule="evenodd" clip-rule="evenodd" fill="#1C1C1C" d="M188.391,189.478l1.182-0.583v1.174
	c-0.889,0.591-1.772,1.47-2.651,2.356v-1.697l0.513-0.288l0.591-0.591l-0.073-0.076L188.391,189.478"/>
<path fill-rule="evenodd" clip-rule="evenodd" fill="#1C1C1C" d="M189.104,194.143c0.146-0.22,0.366-0.515,0.439-0.659l1.03,0.955
	c-0.811,0.659-1.611,1.47-2.28,2.205l-0.952-1.03C188,195.249,188.665,194.585,189.104,194.143"/>
<path fill-rule="evenodd" clip-rule="evenodd" fill="#1C1C1C" d="M163.955,223.853c-2.575,0-4.118-1.619-5.815-3.308l1.03-0.955
	c1.621,2.939,3.826,3.455,6.917,2.939v1.323H163.955"/>
<path fill-rule="evenodd" clip-rule="evenodd" fill="#EEEEEE" d="M205.789,163.823c2.861,1.711,4.951,3.945,6.572,6.489
	c1.626,2.566,2.744,5.461,3.491,8.54c-0.503-0.198-1.006-0.408-1.514-0.608s-1.021-0.41-1.533-0.615
	c0.645,0.793,1.279,1.594,1.89,2.39c0.605,0.789,1.187,1.594,1.758,2.39c0.088,0.916,0.146,1.833,0.166,2.764
	c-0.405-0.129-0.801-0.264-1.206-0.396c-0.4-0.129-0.801-0.269-1.206-0.398c0.41,0.693,0.815,1.389,1.191,2.08
	c0.371,0.688,0.718,1.389,1.064,2.08c-0.117,0.933-0.264,1.88-0.42,2.808c-0.347-0.134-0.688-0.273-1.025-0.41
	c-0.347-0.134-0.688-0.273-1.025-0.413c0.225,0.774,0.449,1.55,0.649,2.319s0.386,1.55,0.566,2.319
	c-0.186,0.754-0.371,1.506-0.557,2.246c-0.317-0.195-0.63-0.391-0.947-0.591c0.249,0.481,0.493,0.95,0.737,1.421
	c-0.249,1.013-0.483,2.014-0.698,2.988c-0.557-0.063-1.113-0.134-1.66-0.205c0.474,0.452,0.947,0.896,1.431,1.34
	c-0.522,3.01-0.679,5.781-0.229,8.105c-1.523-1.731-2.573-3.755-3.145-6.011c-0.557-2.239-0.659-4.724-0.557-7.344
	c0.376,0.139,0.757,0.273,1.138,0.405c0.381,0.129,0.757,0.269,1.138,0.405c-0.352-0.571-0.708-1.14-1.06-1.711
	c-0.352-0.569-0.713-1.14-1.074-1.704c0.049-0.759,0.107-1.531,0.161-2.31c0.483-0.032,0.981-0.061,1.47-0.09
	s0.986-0.061,1.47-0.095c-0.43-0.671-0.864-1.35-1.318-2.014c-0.454-0.676-0.933-1.35-1.416-2.026
	c0.005-0.469,0.01-0.94-0.005-1.404c0.444,0.149,0.889,0.3,1.333,0.449c0.449,0.144,0.884,0.295,1.323,0.435
	c-0.439-0.801-0.889-1.604-1.382-2.405c-0.498-0.806-1.04-1.604-1.587-2.405c-0.117-0.769-0.239-1.545-0.376-2.319
	c0.483,0.159,0.967,0.315,1.455,0.469c0.479,0.156,0.957,0.31,1.44,0.466c-0.581-0.791-1.172-1.592-1.787-2.375
	c-0.62-0.796-1.265-1.584-1.914-2.38c-0.195-0.845-0.4-1.689-0.605-2.524c0.586,0.129,1.167,0.264,1.743,0.391
	c0.576,0.125,1.157,0.254,1.733,0.378c-0.767-0.925-1.538-1.855-2.31-2.786c-0.776-0.928-1.548-1.86-2.314-2.793
	C206.472,167.339,206.125,165.554,205.789,163.823"/>
<path fill-rule="evenodd" clip-rule="evenodd" fill="#EEEEEE" d="M176.584,265.508c0.757,2.427,0.806,4.756,0.425,7.021
	c-0.381,2.28-1.216,4.489-2.358,6.614c-0.181-0.369-0.361-0.745-0.547-1.113c-0.186-0.377-0.366-0.758-0.557-1.131
	c-0.039,0.779-0.083,1.555-0.142,2.319c-0.059,0.749-0.142,1.504-0.22,2.246c-0.415,0.56-0.845,1.118-1.309,1.65
	c-0.161-0.276-0.322-0.557-0.483-0.837c-0.161-0.279-0.322-0.56-0.483-0.84c-0.122,0.6-0.244,1.201-0.386,1.784
	c-0.137,0.581-0.293,1.152-0.449,1.716c-0.542,0.477-1.099,0.936-1.665,1.385c-0.127-0.254-0.249-0.506-0.376-0.754
	c-0.122-0.25-0.244-0.506-0.371-0.755c-0.264,0.55-0.532,1.104-0.809,1.646c-0.28,0.535-0.568,1.074-0.859,1.6
	c-0.485,0.334-0.977,0.664-1.455,0.988c-0.08-0.269-0.156-0.539-0.234-0.809c-0.104,0.389-0.205,0.784-0.305,1.175
	c-0.662,0.449-1.301,0.894-1.917,1.341c-0.278-0.32-0.559-0.641-0.84-0.96c0.046,0.493,0.085,0.989,0.134,1.484
	c-1.829,1.44-3.323,2.93-4.248,4.479c0.015-1.755,0.449-3.435,1.274-5.004c0.82-1.556,2.024-3.016,3.411-4.446
	c0.149,0.271,0.295,0.54,0.439,0.806c0.149,0.269,0.291,0.539,0.439,0.806c0.09-0.501,0.181-1.001,0.271-1.507
	c0.09-0.5,0.174-1.003,0.259-1.514c0.41-0.404,0.835-0.811,1.26-1.225c0.296,0.234,0.591,0.463,0.882,0.7
	c0.29,0.229,0.588,0.464,0.883,0.693c0.096-0.601,0.191-1.208,0.276-1.813c0.085-0.621,0.159-1.24,0.225-1.871
	c0.239-0.266,0.483-0.524,0.708-0.801c0.181,0.311,0.356,0.625,0.532,0.936c0.181,0.305,0.352,0.615,0.522,0.92
	c0.161-0.681,0.317-1.364,0.444-2.07c0.127-0.705,0.229-1.436,0.322-2.17c0.327-0.493,0.649-0.994,0.967-1.504
	c0.195,0.34,0.391,0.674,0.586,1.006c0.195,0.334,0.386,0.664,0.581,0.998c0.073-0.744,0.146-1.498,0.19-2.253
	c0.059-0.767,0.093-1.546,0.127-2.327c0.317-0.573,0.63-1.159,0.938-1.735c0.269,0.371,0.532,0.742,0.791,1.106
	c0.269,0.363,0.527,0.734,0.791,1.096c0.034-0.916,0.068-1.831,0.107-2.752c0.034-0.92,0.068-1.838,0.107-2.758
	C175.188,267.849,175.901,266.665,176.584,265.508"/>
<path fill-rule="evenodd" clip-rule="evenodd" fill="#EEEEEE" d="M195.437,263.018c1.914,4.517,2.388,9.116,1.987,13.757
	c-0.4,4.671-1.743,9.375-3.721,14.02c-0.43-0.66-0.85-1.341-1.284-2c-0.435-0.669-0.869-1.35-1.309-2.031
	c0.049,1.567,0.078,3.12,0.083,4.656c0.005,1.516-0.039,3.039-0.083,4.535c-0.747,1.275-1.533,2.539-2.393,3.779
	c-0.366-0.49-0.732-0.988-1.108-1.479c-0.371-0.491-0.737-0.992-1.104-1.487c-0.156,1.24-0.313,2.48-0.503,3.691
	c-0.181,1.206-0.41,2.396-0.63,3.579c-1.021,1.145-2.085,2.275-3.159,3.377c-0.293-0.452-0.586-0.911-0.874-1.355
	c-0.293-0.451-0.586-0.906-0.869-1.359c-0.444,1.198-0.903,2.399-1.382,3.574c-0.474,1.169-0.977,2.346-1.479,3.506
	c-0.933,0.85-1.865,1.684-2.788,2.514c-0.205-0.51-0.405-1.016-0.61-1.521c-0.146,0.815-0.288,1.636-0.42,2.451
	c-1.265,1.14-2.495,2.266-3.672,3.384c-0.62-0.529-1.235-1.06-1.851-1.59c0.161,0.965,0.332,1.937,0.508,2.9
	c-3.477,3.555-6.262,7.076-7.886,10.501c-0.256-3.491,0.349-6.992,1.775-10.41c1.409-3.396,3.616-6.755,6.194-10.127
	c0.347,0.481,0.674,0.967,1.021,1.44c0.347,0.471,0.679,0.955,1.021,1.431c0.103-1.03,0.205-2.061,0.303-3.086
	c0.098-1.035,0.186-2.07,0.283-3.105c0.767-0.964,1.558-1.934,2.358-2.913c0.63,0.35,1.265,0.693,1.895,1.051
	c0.625,0.349,1.265,0.697,1.895,1.045c0.107-1.23,0.205-2.471,0.278-3.711c0.068-1.256,0.117-2.516,0.151-3.789
	c0.444-0.611,0.894-1.23,1.313-1.855c0.41,0.549,0.815,1.105,1.226,1.65c0.405,0.539,0.801,1.084,1.206,1.623
	c0.215-1.404,0.415-2.824,0.562-4.266c0.146-1.452,0.229-2.939,0.303-4.434c0.581-1.105,1.157-2.219,1.719-3.35
	c0.444,0.594,0.894,1.189,1.343,1.775c0.449,0.584,0.894,1.17,1.343,1.748c0.024-1.499,0.054-3.018,0.034-4.543
	c-0.024-1.536-0.073-3.092-0.132-4.656c0.557-1.265,1.094-2.539,1.626-3.799c0.596,0.635,1.191,1.265,1.782,1.89
	s1.182,1.255,1.772,1.88c-0.068-1.831-0.151-3.664-0.229-5.5c-0.078-1.842-0.156-3.68-0.215-5.516
	C192.976,268.184,194.231,265.56,195.437,263.018"/>
<path fill-rule="evenodd" clip-rule="evenodd" fill="#EEEEEE" d="M196.516,214.639c1.855,3.606,2.314,7.28,1.924,10.986
	c-0.386,3.728-1.685,7.483-3.594,11.194c-0.415-0.53-0.825-1.064-1.245-1.599c-0.42-0.532-0.845-1.077-1.27-1.621
	c0.049,1.25,0.078,2.495,0.083,3.716c0,1.213-0.039,2.429-0.083,3.623c-0.723,1.021-1.484,2.031-2.31,3.022
	c-0.356-0.396-0.713-0.791-1.069-1.187c-0.361-0.391-0.723-0.784-1.079-1.184c-0.142,0.989-0.298,1.985-0.479,2.945
	c-0.181,0.964-0.4,1.916-0.615,2.861c-0.986,0.912-2.007,1.813-3.047,2.692c-0.288-0.358-0.566-0.718-0.854-1.084
	c-0.283-0.354-0.562-0.72-0.84-1.079c-0.435,0.955-0.874,1.914-1.338,2.854c-0.454,0.931-0.947,1.871-1.431,2.796
	c-0.903,0.679-1.807,1.345-2.695,2.009c-0.2-0.404-0.396-0.811-0.591-1.213c-0.137,0.654-0.273,1.304-0.41,1.953
	c-1.216,0.916-2.407,1.816-3.545,2.705c-0.605-0.42-1.196-0.845-1.792-1.27c0.161,0.77,0.317,1.545,0.488,2.314
	c-3.359,2.842-6.05,5.654-7.624,8.391c-0.245-2.79,0.339-5.586,1.716-8.32c1.364-2.709,3.501-5.391,5.996-8.08
	c0.327,0.385,0.654,0.771,0.981,1.149c0.337,0.376,0.654,0.767,0.991,1.14c0.098-0.817,0.195-1.643,0.288-2.463
	c0.098-0.825,0.181-1.65,0.273-2.476c0.742-0.776,1.514-1.546,2.285-2.329c0.61,0.278,1.226,0.559,1.831,0.835
	c0.605,0.283,1.226,0.56,1.836,0.835c0.103-0.977,0.195-1.971,0.264-2.961c0.068-0.999,0.117-2.005,0.146-3.025
	c0.435-0.491,0.864-0.979,1.27-1.479c0.4,0.439,0.786,0.879,1.187,1.313c0.396,0.437,0.781,0.867,1.172,1.297
	c0.21-1.121,0.405-2.251,0.542-3.406c0.142-1.16,0.22-2.344,0.298-3.535c0.557-0.884,1.113-1.775,1.655-2.678
	c0.435,0.474,0.869,0.95,1.304,1.418c0.43,0.466,0.864,0.93,1.294,1.401c0.024-1.201,0.049-2.417,0.029-3.63
	c-0.02-1.23-0.063-2.471-0.117-3.721c0.527-1.011,1.06-2.029,1.567-3.035c0.576,0.505,1.152,1.011,1.724,1.509
	c0.571,0.5,1.143,1.001,1.714,1.501c-0.068-1.465-0.142-2.93-0.22-4.395s-0.151-2.935-0.21-4.402
	C194.133,218.765,195.349,216.67,196.516,214.639"/>
<path fill-rule="evenodd" clip-rule="evenodd" fill="#EEEEEE" d="M129.556,206.875c6.621-0.386,12.146-1.687,16.431-3.086
	c4.089-1.331,7.849-3.589,11.399-6.335c-0.605-0.129-1.208-0.266-1.814-0.396c-0.61-0.139-1.235-0.269-1.875-0.378
	c1.34-0.4,2.644-0.796,3.899-1.226c1.221-0.425,2.419-0.901,3.569-1.375c0.916-0.916,1.792-1.86,2.632-2.83
	c-0.386-0.1-0.781-0.19-1.167-0.291c-0.383-0.1-0.779-0.2-1.174-0.295c0.911-0.476,1.816-0.959,2.671-1.47
	c0.844-0.505,1.66-1.04,2.48-1.584c0.71-1.035,1.398-2.097,2.048-3.162c-0.317-0.029-0.645-0.054-0.967-0.085
	c-0.322-0.029-0.645-0.063-0.967-0.088c0.776-0.671,1.558-1.36,2.29-2.065c0.723-0.701,1.426-1.431,2.1-2.18
	c0.449-0.881,0.864-1.75,1.279-2.62c-0.288,0.09-0.586,0.173-0.874,0.249c0.454-0.405,0.898-0.82,1.328-1.24
	c0.532-1.199,1.021-2.38,1.489-3.525c-0.254-0.1-0.508-0.188-0.776-0.254c0.454-0.371,0.889-0.725,1.294-1.082
	c1.201-3.518,2.07-6.594,2.666-8.889c-0.625,1.501-1.411,3.555-2.793,5.891c-1.445,2.444-3.442,5.068-5.547,7.878
	c0.356-0.073,0.723-0.159,1.074-0.234s0.698-0.164,1.04-0.239c-0.664,0.549-1.353,1.099-2.075,1.638
	c-0.752,0.557-1.519,1.077-2.29,1.592c-0.687,0.806-1.364,1.609-2.051,2.419c0.354,0.149,0.72,0.286,1.106,0.405
	c0.383,0.12,0.759,0.244,1.135,0.381c-0.947,0.603-1.926,1.228-2.941,1.838c-1.035,0.625-2.063,1.206-3.099,1.775
	c-0.42,0.481-0.881,0.964-1.321,1.44c0.52-0.029,1.064-0.085,1.619-0.154c0.562-0.076,1.111-0.146,1.646-0.21
	c-1.135,0.735-2.3,1.484-3.555,2.178c-1.289,0.715-2.644,1.367-4.023,1.982c-0.925,0.703-1.897,1.404-2.871,2.095
	c0.679-0.005,1.379-0.042,2.085-0.095c0.691-0.051,1.379-0.11,2.056-0.161c-1.411,0.625-2.891,1.27-4.421,1.865
	c-1.565,0.605-3.184,1.16-4.814,1.68c-1.16,0.706-2.329,1.411-3.501,2.095c0.896,0.071,1.812,0.115,2.722,0.125
	c0.908,0.017,1.804,0.022,2.659,0.061c-1.89,0.64-3.855,1.306-5.889,1.946c-2.08,0.649-4.197,1.235-6.296,1.775
	C134.59,204.114,132.051,205.549,129.556,206.875"/>
<path fill-rule="evenodd" clip-rule="evenodd" fill="#EEEEEE" d="M140.366,303.223c0.754,2.427,0.803,4.756,0.425,7.021
	c-0.381,2.28-1.221,4.489-2.366,6.608c-0.181-0.363-0.359-0.739-0.544-1.107c-0.186-0.377-0.371-0.755-0.554-1.131
	c-0.042,0.779-0.085,1.555-0.146,2.319c-0.054,0.755-0.139,1.504-0.22,2.246c-0.41,0.56-0.845,1.113-1.309,1.65
	c-0.161-0.276-0.322-0.557-0.481-0.835c-0.161-0.281-0.32-0.562-0.481-0.842c-0.12,0.6-0.249,1.201-0.383,1.784
	c-0.142,0.581-0.295,1.152-0.457,1.722c-0.54,0.471-1.099,0.93-1.665,1.379c-0.125-0.249-0.249-0.503-0.369-0.754
	c-0.132-0.25-0.251-0.506-0.371-0.755c-0.264,0.554-0.535,1.104-0.815,1.646c-0.273,0.539-0.569,1.074-0.854,1.6
	c-0.491,0.334-0.974,0.664-1.455,0.988c-0.081-0.269-0.159-0.539-0.239-0.809c-0.1,0.394-0.2,0.784-0.3,1.175
	c-0.659,0.449-1.301,0.896-1.914,1.341c-0.286-0.32-0.562-0.641-0.84-0.96c0.039,0.493,0.083,0.989,0.129,1.484
	c-1.831,1.445-3.32,2.93-4.246,4.479c0.015-1.755,0.444-3.435,1.27-5.004c0.82-1.556,2.026-3.016,3.416-4.446
	c0.144,0.271,0.291,0.54,0.439,0.811c0.146,0.264,0.291,0.534,0.439,0.801c0.09-0.501,0.181-1.001,0.266-1.507
	c0.09-0.5,0.176-1.003,0.259-1.508c0.415-0.41,0.835-0.816,1.267-1.23c0.288,0.234,0.583,0.463,0.879,0.695
	c0.291,0.234,0.586,0.469,0.881,0.698c0.093-0.601,0.193-1.208,0.278-1.813c0.085-0.621,0.156-1.24,0.225-1.871
	c0.242-0.261,0.481-0.529,0.71-0.801c0.176,0.315,0.352,0.625,0.53,0.936c0.176,0.305,0.352,0.615,0.525,0.92
	c0.161-0.681,0.315-1.364,0.442-2.07c0.129-0.705,0.225-1.436,0.325-2.17c0.325-0.493,0.645-0.994,0.959-1.504
	c0.2,0.334,0.396,0.674,0.583,1.011c0.2,0.329,0.391,0.659,0.586,0.989c0.076-0.74,0.144-1.494,0.195-2.249
	c0.049-0.767,0.09-1.546,0.12-2.327c0.32-0.573,0.635-1.159,0.945-1.735c0.261,0.371,0.525,0.742,0.791,1.106
	c0.264,0.365,0.525,0.734,0.784,1.096c0.042-0.916,0.076-1.831,0.105-2.752c0.037-0.92,0.076-1.838,0.115-2.758
	C138.965,305.563,139.68,304.38,140.366,303.223"/>
<path fill-rule="evenodd" clip-rule="evenodd" fill="#EEEEEE" d="M197.869,309.014c0.757,2.419,0.806,4.751,0.43,7.015
	c-0.376,2.285-1.216,4.496-2.363,6.615c-0.181-0.371-0.361-0.744-0.547-1.115c-0.181-0.369-0.366-0.75-0.552-1.131
	c-0.039,0.787-0.088,1.561-0.146,2.322c-0.059,0.754-0.142,1.509-0.22,2.244c-0.415,0.566-0.85,1.12-1.309,1.654
	c-0.161-0.28-0.322-0.559-0.479-0.834c-0.166-0.281-0.322-0.56-0.483-0.846c-0.122,0.605-0.249,1.207-0.391,1.785
	c-0.132,0.586-0.293,1.154-0.449,1.721c-0.537,0.469-1.099,0.936-1.665,1.38c-0.122-0.249-0.249-0.501-0.376-0.755
	c-0.122-0.251-0.249-0.5-0.366-0.756c-0.269,0.557-0.537,1.11-0.811,1.65c-0.283,0.534-0.571,1.071-0.859,1.599
	c-0.493,0.337-0.977,0.661-1.455,0.991c-0.083-0.269-0.156-0.545-0.239-0.815c-0.103,0.396-0.205,0.791-0.303,1.182
	c-0.654,0.449-1.299,0.894-1.914,1.338c-0.283-0.319-0.562-0.64-0.835-0.964c0.039,0.5,0.078,0.996,0.127,1.491
	c-1.826,1.438-3.325,2.93-4.248,4.478c0.015-1.753,0.449-3.438,1.274-5.005c0.82-1.553,2.026-3.013,3.418-4.448
	c0.142,0.269,0.288,0.545,0.435,0.811c0.146,0.264,0.288,0.539,0.439,0.803c0.088-0.5,0.181-1.003,0.269-1.504
	c0.088-0.505,0.176-1.01,0.254-1.516c0.415-0.41,0.84-0.815,1.265-1.23c0.298,0.236,0.591,0.467,0.884,0.701
	c0.288,0.234,0.586,0.466,0.884,0.695c0.093-0.601,0.195-1.206,0.273-1.816c0.088-0.615,0.161-1.235,0.225-1.87
	c0.239-0.259,0.488-0.524,0.718-0.794c0.171,0.311,0.347,0.625,0.522,0.936c0.181,0.305,0.352,0.61,0.527,0.913
	c0.156-0.674,0.313-1.357,0.444-2.063c0.122-0.705,0.225-1.436,0.317-2.17c0.327-0.496,0.649-0.996,0.967-1.504
	c0.195,0.334,0.391,0.674,0.586,1.004c0.195,0.334,0.391,0.666,0.586,0.996c0.068-0.74,0.137-1.497,0.186-2.252
	c0.059-0.764,0.093-1.545,0.127-2.324c0.322-0.58,0.63-1.159,0.942-1.74c0.264,0.376,0.527,0.74,0.786,1.111
	c0.269,0.358,0.527,0.729,0.791,1.094c0.039-0.916,0.078-1.834,0.107-2.754c0.034-0.921,0.068-1.842,0.107-2.757
	C196.477,311.348,197.185,310.163,197.869,309.014"/>
<path fill-rule="evenodd" clip-rule="evenodd" fill="#EEEEEE" d="M237.786,128.494l1.616-3.364l-7.261,3.02l0.039-3.677
	l-5.205,3.997l-0.806-3.491l-5.537,4.731l-0.156-4.231l-7.134,5.801l0.195-4.246l-6.025,5.754l-0.278,4.395
	c8.315-8.45,18.896-2.583,34.165-6.733l3.721-3.13L237.786,128.494"/>
<path fill-rule="evenodd" clip-rule="evenodd" fill="#DADADA" d="M212.043,142.598l13.013-3.799
	c-3.799-0.144-12.866,1.899-11.401-0.439c-0.586-3.65,23.384-4.531,28.501-7.451l-2.793-0.21l0.005,0.037
	c-3.193,0.129-10.19,1.023-13.516,1.165c-5.039,0.574-13.989-0.376-17.051,5.64c-0.645,2.529,1.641,3.169,3.501,3.096l0.063,1.833
	c-0.249-0.044-0.483-0.085-0.713-0.129L212.043,142.598"/>
<path fill-rule="evenodd" clip-rule="evenodd" d="M207.405,139.509c-0.645-5.195,5.259-7.795,9.033-8.469
	c4.048-0.386,8.433-0.342,12.476-0.806c2.319-0.466,4.053,0.049,6.299-0.557l4.155,1.057c-3.193,0.129-10.19,1.023-13.516,1.165
	c-5.039,0.574-13.989-0.376-17.051,5.64c-0.645,2.529,1.641,3.169,3.501,3.096l0.063,1.833
	C210.085,142.048,208.621,141.963,207.405,139.509"/>
<path fill-rule="evenodd" clip-rule="evenodd" fill="#EEEEEE" d="M182.336,139.785c7.705-3.811,7.231-8.12,14.6-10.347
	c-5.254,13.711,1.836,15.735,9.253,20.771c-4.565-0.706-9.634,0.125-17.1,8.34c0.195-3.95,3.896-6.396,5.84-9.59
	c-3.472-1.702-5.059-5.396-4.756-11.096C187.644,138.699,181.946,142.783,182.336,139.785"/>
<path fill-rule="evenodd" clip-rule="evenodd" fill="#AFAFAF" d="M195.872,276.585v0.144h-1.47c0.732-1.909,1.392-4.04,1.543-6.104
	h1.543C196.755,272.168,195.872,274.964,195.872,276.585"/>
<path fill-rule="evenodd" clip-rule="evenodd" fill="#AFAFAF" d="M192.415,280.703l0.146,0.661c0,0-0.298,2.5-0.298,2.796
	c-0.288,1.394-1.172,2.573-1.689,3.894l-1.172-1.025c2.28-2.279,2.129-4.855,1.543-7.943h1.318v0.883l0.078,0.367l0.073-0.146
	V280.703"/>
<path fill-rule="evenodd" clip-rule="evenodd" fill="#AFAFAF" d="M187.043,292.173v0.666c0,1.98-1.104,3.675-1.616,5.516
	l-1.025-1.03c1.538-2.505,2.349-4.78,0.22-7.061l1.03-0.884c0.361,0.734,1.03,1.543,1.245,2.28L187.043,292.173"/>
<path fill-rule="evenodd" clip-rule="evenodd" fill="#AFAFAF" d="M179.91,305.483l-0.068,0.295v0.811h-0.225l-0.146,0.149
	l-1.177-0.149c0.737-1.765,1.323-3.454,1.323-5.439h1.475C180.574,302.544,180.208,304.089,179.91,305.483"/>
<path fill-rule="evenodd" clip-rule="evenodd" fill="#AFAFAF" d="M172.19,310.12l1.47,0.295c-0.659,1.47-1.104,3.088-1.621,4.634
	h-1.318c0.439-1.179,0.957-2.575,1.318-3.899h-0.142v-0.886L172.19,310.12"/>
<path fill-rule="evenodd" clip-rule="evenodd" fill="#AFAFAF" d="M197.048,224.075l0.225,0.884h-1.548
	c0.288-2.134,0.288-3.606,0-5.74h1.548l-0.225,0.884V224.075"/>
<path fill-rule="evenodd" clip-rule="evenodd" fill="#AFAFAF" d="M192.122,233.564c0,0.068,0,0.659,0,0.735h-1.548
	c0.664-1.621,1.401-3.679,1.401-5.447h1.538C192.854,230.398,192.488,232.019,192.122,233.564"/>
<path fill-rule="evenodd" clip-rule="evenodd" fill="#AFAFAF" d="M187.019,242.529c0,0.364-0.347,1.25-0.347,1.614h-1.045
	c0.815-2.645,1.177-5.364,0.811-8.089l0.957-0.037l0.142,0.996C187.576,239.063,187.405,240.903,187.019,242.529"/>
<path fill-rule="evenodd" clip-rule="evenodd" fill="#AFAFAF" d="M181.038,249.349l-0.122,0.666l-0.063-0.024l-0.044,0.298
	l-1.226-0.516c0.737-1.76,1.216-3.869,1.563-5.645l1.221,0.516l-0.308,0.744l-0.889,3.455l0.068,0.031L181.038,249.349"/>
<path fill-rule="evenodd" clip-rule="evenodd" fill="#AFAFAF" d="M174.255,254.785l-0.068,0.41l-0.049-0.022l-0.024,0.191
	l-0.752-0.32c0.454-1.084,0.747-2.391,0.962-3.481l0.757,0.317l-0.195,0.459l-0.547,2.134l0.044,0.017L174.255,254.785"/>
<path fill-rule="evenodd" clip-rule="evenodd" fill="#AFAFAF" d="M194.182,133.618l-0.518,0.439l-1.177-0.955
	c1.396-0.588,2.354-1.174,3.384-2.205l1.03,1.177C196.384,132.224,194.47,133.77,194.182,133.618"/>
<path fill-rule="evenodd" clip-rule="evenodd" fill="#AFAFAF" d="M193.293,137.148l-1.25-0.073c0.957-0.957,2.651-2.427,3.237-3.601
	h1.768c-1.104,1.101-2.578,2.205-3.164,3.601L193.293,137.148"/>
<path fill-rule="evenodd" clip-rule="evenodd" fill="#AFAFAF" d="M194.031,141.118l-0.366-0.439l-0.513-0.515
	c0.952-1.326,2.061-2.644,2.72-4.189l0.884,1.025c-1.03,1.179-2.061,2.725-2.573,4.194L194.031,141.118"/>
<path fill-rule="evenodd" clip-rule="evenodd" fill="#AFAFAF" d="M196.902,145.754c0,0.364-0.078,1.03-0.078,1.394h-1.25
	c0.298-1.909,0.669-3.75,0.669-5.735h1.245l-0.146,0.955L196.902,145.754"/>
<path fill-rule="evenodd" clip-rule="evenodd" fill="#AFAFAF" d="M199.182,147.148c0,0.295-0.078,1.106-0.078,1.545h-1.323
	c0.225-1.545,0.513-3.235,0.513-4.78h1.328l-0.22,0.886L199.182,147.148"/>
<path fill-rule="evenodd" clip-rule="evenodd" fill="#AFAFAF" d="M163.171,151.04l-0.591-0.591c0.63-0.176,1.188-0.396,1.722-0.63
	l-0.816-0.781c-0.729,0.261-1.474,0.542-2.106,0.752c-0.439,0.068-0.955,0.364-1.394,0.513v-1.323
	c0.667-0.181,1.384-0.439,2.104-0.706l-1.66-0.454l-2.339,1.13l-0.291-3.091l-3.384,2.944l0.735-4.27l-3.677,3.386l1.321-3.677
	l-1.76,1.025c-1.035,1.035-2.8,2.651-3.535,3.682c0.371-1.396,0.811-2.576,1.47-5c-1.765,1.614-3.23,2.72-4.705,4.705l1.475-4.705
	c-1.914,1.318-4.414,4.634-5.884,6.323l1.03-3.604c-1.77,0.955-2.795,2.134-4.121,3.53c0.076-0.222-0.144-1.177-0.295-1.177
	c-0.515,0-3.159,2.939-3.159,2.939c0.586-1.174,4.485-7.28,5.735-7.793c0.515-0.22,6.326-1.396,7.871-0.811
	c1.03-0.806,2.205-1.909,2.939-3.159l0.144,1.174l-0.144,0.369c1.25,0.957,4.189,0.586,4.561-0.884
	c0.588,0.591,0.884,1.47,1.174,2.205l2.5-0.586v2.205l2.356-1.323c-1.03,2.795,0.439,3.235,2.5,3.235l-1.201,0.583l1.574,0.647
	c0.611-0.215,1.197-0.405,1.741-0.535v1.245l1.04,0.425c0.386-0.176,0.773-0.347,1.187-0.496l1.03,1.03l-1.25,0.364l-0.742,0.261
	l-0.625,1.04l-0.576-0.552l-0.779,0.505c-0.148,0.146-0.515,0.166-0.734,0.234L163.171,151.04"/>
<path fill-rule="evenodd" clip-rule="evenodd" fill="#AFAFAF" d="M168.147,177.888l-0.151,0.295l-0.366,0.959l-0.146-0.149
	l-0.366-0.371l-0.516-0.51c0.735-1.028,1.546-1.99,2.132-3.088l1.03,1.03l-0.586,0.583L168.147,177.888"/>
<path fill-rule="evenodd" clip-rule="evenodd" fill="#AFAFAF" d="M162.041,186.934l-1.106,0.225
	c-0.515,0.071-1.318,0.295-1.833,0.366v-1.545c2.424,0.515,3.674-0.735,5.292-2.351v1.692
	C163.66,185.759,162.776,186.423,162.041,186.934"/>
<path fill-rule="evenodd" clip-rule="evenodd" fill="#AFAFAF" d="M156.086,192.598l-0.515,0.146
	c-0.955,0.295-2.136,0.811-3.091,1.179v-1.545c2.571-0.149,4.189-1.174,5.886-3.088l0.955,0.959
	C158.367,190.908,157.117,192.378,156.086,192.598"/>
<path fill-rule="evenodd" clip-rule="evenodd" fill="#AFAFAF" d="M153.73,195.393c-1.03,0.515-1.399,0.662-1.985,1.841l-1.106-0.955
	c1.182-1.182,3.235-1.841,4.121-2.944l0.735,1.399l-0.735,0.291l-0.439,0.149h-0.076l0.076,0.146L153.73,195.393"/>
<path fill-rule="evenodd" clip-rule="evenodd" fill="#AFAFAF" d="M144.316,200.764v-1.545c2.134,0.811,3.164,0.22,5.149-0.659
	l1.03,1.025c-1.106,0.225-2.209,0.735-3.235,1.028C146.23,201.128,145.566,200.764,144.316,200.764"/>
<path fill-rule="evenodd" clip-rule="evenodd" fill="#AFAFAF" d="M136.375,204.59v-1.182c2.356,0.667,3.972,0.295,6.177-0.879
	l1.03,1.03c-2.351,0.659-4.417,1.25-6.841,1.25L136.375,204.59"/>
<path fill-rule="evenodd" clip-rule="evenodd" fill="#AFAFAF" d="M137.847,206.575l-0.442,0.22l-0.588,0.076
	c-1.106,0-2.212,0-3.311,0v-1.326c2.205,0.439,3.015,0.291,4.929-0.515l1.101,1.03l-1.25,0.364L137.847,206.575"/>
<path fill-rule="evenodd" clip-rule="evenodd" fill="#C5C5C5" d="M167.336,181.494l-0.442,0.295c-0.072,0-2.868,1.765-3.527,1.985
	l-0.957-1.101c2.352-0.588,3.525-1.255,5-3.088l0.957,1.099l-0.591,0.295L167.336,181.494"/>
<polyline fill-rule="evenodd" clip-rule="evenodd" fill="#00D800" points="109.871,117.898 162.346,10.64 164.25,15.835 
	113.765,117.959 109.871,117.898 "/>
<path fill-rule="evenodd" clip-rule="evenodd" fill="#00D800" d="M9.026,113.933L59.365,10.64l1.904,5.195L12.49,114.509v94.524
	c-0.105,5.205-3.101,1.387-3.655-16.775l0.305-78.059v-0.005L9.026,113.933"/>
<path fill-rule="evenodd" clip-rule="evenodd" fill="#00D800" d="M212.522,113.865L265.681,10.63l1.797,5.234l-50.288,96.675
	C215.642,112.993,214.08,113.438,212.522,113.865"/>
<polyline fill-rule="evenodd" clip-rule="evenodd" fill="#009100" points="61.287,16.074 110.051,112.898 108.152,117.305 
	59.26,21.013 61.287,16.074 "/>
<path fill-rule="evenodd" clip-rule="evenodd" fill="#009100" d="M164.294,15.813l47.158,96.006l-1.338,2.7
	c-0.61,0.159-1.221,0.32-1.831,0.476l-46.428-94.417L164.294,15.813"/>
<path fill-rule="evenodd" clip-rule="evenodd" fill="#009100" d="M267.493,15.608l47.705,98.521l0.146,5.901l0.361,77.839
	c-10.186,91.35-56.44,152.205-153.145,167.415c-70.271-12.139-114.59-42.61-137.3-94.528c-2.346-5-0.745-10.911,1.624-8.025
	c18.467,53.908,65.515,85.249,135.032,98.66c94.463-15.882,139.678-75.062,148.75-162.491v-84.314l-45.41-94.006L267.493,15.608"/>
<polyline fill-rule="evenodd" clip-rule="evenodd" fill="#EEEEEE" points="9.421,10.339 54.197,10.339 8.77,100.125 8.77,91.804 
	46.292,15.178 9.126,15.354 9.421,10.339 "/>
<polyline fill-rule="evenodd" clip-rule="evenodd" fill="#EEEEEE" points="65.261,10.339 158.406,10.339 112.136,103.093 
	112.136,92.869 150.505,15.178 68.362,15.144 65.261,10.339 "/>
<polyline fill-rule="evenodd" clip-rule="evenodd" fill="#EEEEEE" points="167.698,10.339 261.179,10.339 214.065,103.093 
	214.065,92.869 253.108,15.178 170.291,15.144 167.698,10.339 "/>
<polyline fill-rule="evenodd" clip-rule="evenodd" fill="#EEEEEE" points="271.179,10.339 315.11,10.339 315.188,101.743 
	310.471,92.024 310.242,15.178 273.435,15.144 271.179,10.339 "/>
<path fill-rule="evenodd" clip-rule="evenodd" d="M6.975,8.074h309.878v184.729c-5.161,97.331-63.569,163.677-157.322,174.007
	C64.185,351.313,12.141,294.108,6.975,191.609V8.074 M0,0h323.831v193.044c-5.4,101.714-66.431,171.044-164.404,181.838
	C59.785,358.694,5.396,298.909,0,191.799V0z"/>
</svg>
