<svg width="304" height="304" viewBox="0 0 304 304" fill="none" xmlns="http://www.w3.org/2000/svg">
<rect width="304" height="304" fill="white"/>
<path d="M19.456 19.4561H30.0595V30.0596H19.456V19.4561ZM30.0595 19.4561H40.6631V30.0596H30.0595V19.4561ZM40.6631 19.4561H51.2666V30.0596H40.6631V19.4561ZM51.2666 19.4561H61.8701V30.0596H51.2666V19.4561ZM61.8701 19.4561H72.4736V30.0596H61.8701V19.4561ZM72.4736 19.4561H83.0771V30.0596H72.4736V19.4561ZM83.0771 19.4561H93.6807V30.0596H83.0771V19.4561ZM136.095 19.4561H146.698V30.0596H136.095V19.4561ZM167.905 19.4561H178.509V30.0596H167.905V19.4561ZM178.509 19.4561H189.112V30.0596H178.509V19.4561ZM189.112 19.4561H199.716V30.0596H189.112V19.4561ZM210.319 19.4561H220.923V30.0596H210.319V19.4561ZM220.923 19.4561H231.526V30.0596H220.923V19.4561ZM231.526 19.4561H242.13V30.0596H231.526V19.4561ZM242.13 19.4561H252.733V30.0596H242.13V19.4561ZM252.733 19.4561H263.337V30.0596H252.733V19.4561ZM263.337 19.4561H273.941V30.0596H263.337V19.4561ZM273.941 19.4561H284.544V30.0596H273.941V19.4561ZM19.456 30.0596H30.0595V40.6631H19.456V30.0596ZM83.0771 30.0596H93.6807V40.6631H83.0771V30.0596ZM114.888 30.0596H125.491V40.6631H114.888V30.0596ZM157.302 30.0596H167.905V40.6631H157.302V30.0596ZM167.905 30.0596H178.509V40.6631H167.905V30.0596ZM189.112 30.0596H199.716V40.6631H189.112V30.0596ZM210.319 30.0596H220.923V40.6631H210.319V30.0596ZM273.941 30.0596H284.544V40.6631H273.941V30.0596ZM19.456 40.6631H30.0595V51.2666H19.456V40.6631ZM40.6631 40.6631H51.2666V51.2666H40.6631V40.6631ZM51.2666 40.6631H61.8701V51.2666H51.2666V40.6631ZM61.8701 40.6631H72.4736V51.2666H61.8701V40.6631ZM83.0771 40.6631H93.6807V51.2666H83.0771V40.6631ZM114.888 40.6631H125.491V51.2666H114.888V40.6631ZM125.491 40.6631H136.095V51.2666H125.491V40.6631ZM146.698 40.6631H157.302V51.2666H146.698V40.6631ZM167.905 40.6631H178.509V51.2666H167.905V40.6631ZM178.509 40.6631H189.112V51.2666H178.509V40.6631ZM210.319 40.6631H220.923V51.2666H210.319V40.6631ZM231.526 40.6631H242.13V51.2666H231.526V40.6631ZM242.13 40.6631H252.733V51.2666H242.13V40.6631ZM252.733 40.6631H263.337V51.2666H252.733V40.6631ZM273.941 40.6631H284.544V51.2666H273.941V40.6631ZM19.456 51.2666H30.0595V61.8701H19.456V51.2666ZM40.6631 51.2666H51.2666V61.8701H40.6631V51.2666ZM51.2666 51.2666H61.8701V61.8701H51.2666V51.2666ZM61.8701 51.2666H72.4736V61.8701H61.8701V51.2666ZM83.0771 51.2666H93.6807V61.8701H83.0771V51.2666ZM104.284 51.2666H114.888V61.8701H104.284V51.2666ZM114.888 51.2666H125.491V61.8701H114.888V51.2666ZM146.698 51.2666H157.302V61.8701H146.698V51.2666ZM167.905 51.2666H178.509V61.8701H167.905V51.2666ZM178.509 51.2666H189.112V61.8701H178.509V51.2666ZM210.319 51.2666H220.923V61.8701H210.319V51.2666ZM231.526 51.2666H242.13V61.8701H231.526V51.2666ZM242.13 51.2666H252.733V61.8701H242.13V51.2666ZM252.733 51.2666H263.337V61.8701H252.733V51.2666ZM273.941 51.2666H284.544V61.8701H273.941V51.2666ZM19.456 61.8701H30.0595V72.4737H19.456V61.8701ZM40.6631 61.8701H51.2666V72.4737H40.6631V61.8701ZM51.2666 61.8701H61.8701V72.4737H51.2666V61.8701ZM61.8701 61.8701H72.4736V72.4737H61.8701V61.8701ZM83.0771 61.8701H93.6807V72.4737H83.0771V61.8701ZM125.491 61.8701H136.095V72.4737H125.491V61.8701ZM136.095 61.8701H146.698V72.4737H136.095V61.8701ZM146.698 61.8701H157.302V72.4737H146.698V61.8701ZM157.302 61.8701H167.905V72.4737H157.302V61.8701ZM167.905 61.8701H178.509V72.4737H167.905V61.8701ZM210.319 61.8701H220.923V72.4737H210.319V61.8701ZM231.526 61.8701H242.13V72.4737H231.526V61.8701ZM242.13 61.8701H252.733V72.4737H242.13V61.8701ZM252.733 61.8701H263.337V72.4737H252.733V61.8701ZM273.941 61.8701H284.544V72.4737H273.941V61.8701ZM19.456 72.4737H30.0595V83.0772H19.456V72.4737ZM83.0771 72.4737H93.6807V83.0772H83.0771V72.4737ZM104.284 72.4737H114.888V83.0772H104.284V72.4737ZM136.095 72.4737H146.698V83.0772H136.095V72.4737ZM189.112 72.4737H199.716V83.0772H189.112V72.4737ZM210.319 72.4737H220.923V83.0772H210.319V72.4737ZM273.941 72.4737H284.544V83.0772H273.941V72.4737ZM19.456 83.0772H30.0595V93.6807H19.456V83.0772ZM30.0595 83.0772H40.6631V93.6807H30.0595V83.0772ZM40.6631 83.0772H51.2666V93.6807H40.6631V83.0772ZM51.2666 83.0772H61.8701V93.6807H51.2666V83.0772ZM61.8701 83.0772H72.4736V93.6807H61.8701V83.0772ZM72.4736 83.0772H83.0771V93.6807H72.4736V83.0772ZM83.0771 83.0772H93.6807V93.6807H83.0771V83.0772ZM104.284 83.0772H114.888V93.6807H104.284V83.0772ZM125.491 83.0772H136.095V93.6807H125.491V83.0772ZM146.698 83.0772H157.302V93.6807H146.698V83.0772ZM167.905 83.0772H178.509V93.6807H167.905V83.0772ZM189.112 83.0772H199.716V93.6807H189.112V83.0772ZM210.319 83.0772H220.923V93.6807H210.319V83.0772ZM220.923 83.0772H231.526V93.6807H220.923V83.0772ZM231.526 83.0772H242.13V93.6807H231.526V83.0772ZM242.13 83.0772H252.733V93.6807H242.13V83.0772ZM252.733 83.0772H263.337V93.6807H252.733V83.0772ZM263.337 83.0772H273.941V93.6807H263.337V83.0772ZM273.941 83.0772H284.544V93.6807H273.941V83.0772ZM104.284 93.6807H114.888V104.284H104.284V93.6807ZM114.888 93.6807H125.491V104.284H114.888V93.6807ZM125.491 93.6807H136.095V104.284H125.491V93.6807ZM167.905 93.6807H178.509V104.284H167.905V93.6807ZM178.509 93.6807H189.112V104.284H178.509V93.6807ZM189.112 93.6807H199.716V104.284H189.112V93.6807ZM30.0595 104.284H40.6631V114.888H30.0595V104.284ZM40.6631 104.284H51.2666V114.888H40.6631V104.284ZM83.0771 104.284H93.6807V114.888H83.0771V104.284ZM157.302 104.284H167.905V114.888H157.302V104.284ZM167.905 104.284H178.509V114.888H167.905V104.284ZM189.112 104.284H199.716V114.888H189.112V104.284ZM210.319 104.284H220.923V114.888H210.319V104.284ZM220.923 104.284H231.526V114.888H220.923V104.284ZM242.13 104.284H252.733V114.888H242.13V104.284ZM30.0595 114.888H40.6631V125.491H30.0595V114.888ZM40.6631 114.888H51.2666V125.491H40.6631V114.888ZM61.8701 114.888H72.4736V125.491H61.8701V114.888ZM93.6807 114.888H104.284V125.491H93.6807V114.888ZM125.491 114.888H136.095V125.491H125.491V114.888ZM136.095 114.888H146.698V125.491H136.095V114.888ZM146.698 114.888H157.302V125.491H146.698V114.888ZM157.302 114.888H167.905V125.491H157.302V114.888ZM167.905 114.888H178.509V125.491H167.905V114.888ZM178.509 114.888H189.112V125.491H178.509V114.888ZM189.112 114.888H199.716V125.491H189.112V114.888ZM210.319 114.888H220.923V125.491H210.319V114.888ZM220.923 114.888H231.526V125.491H220.923V114.888ZM242.13 114.888H252.733V125.491H242.13V114.888ZM263.337 114.888H273.941V125.491H263.337V114.888ZM273.941 114.888H284.544V125.491H273.941V114.888ZM83.0771 125.491H93.6807V136.095H83.0771V125.491ZM136.095 125.491H146.698V136.095H136.095V125.491ZM178.509 125.491H189.112V136.095H178.509V125.491ZM199.716 125.491H210.319V136.095H199.716V125.491ZM220.923 125.491H231.526V136.095H220.923V125.491ZM242.13 125.491H252.733V136.095H242.13V125.491ZM252.733 125.491H263.337V136.095H252.733V125.491ZM273.941 125.491H284.544V136.095H273.941V125.491ZM19.456 136.095H30.0595V146.698H19.456V136.095ZM30.0595 136.095H40.6631V146.698H30.0595V136.095ZM61.8701 136.095H72.4736V146.698H61.8701V136.095ZM93.6807 136.095H104.284V146.698H93.6807V136.095ZM114.888 136.095H125.491V146.698H114.888V136.095ZM125.491 136.095H136.095V146.698H125.491V136.095ZM157.302 136.095H167.905V146.698H157.302V136.095ZM178.509 136.095H189.112V146.698H178.509V136.095ZM199.716 136.095H210.319V146.698H199.716V136.095ZM220.923 136.095H231.526V146.698H220.923V136.095ZM242.13 136.095H252.733V146.698H242.13V136.095ZM19.456 146.698H30.0595V157.302H19.456V146.698ZM30.0595 146.698H40.6631V157.302H30.0595V146.698ZM51.2666 146.698H61.8701V157.302H51.2666V146.698ZM83.0771 146.698H93.6807V157.302H83.0771V146.698ZM93.6807 146.698H104.284V157.302H93.6807V146.698ZM104.284 146.698H114.888V157.302H104.284V146.698ZM114.888 146.698H125.491V157.302H114.888V146.698ZM125.491 146.698H136.095V157.302H125.491V146.698ZM157.302 146.698H167.905V157.302H157.302V146.698ZM178.509 146.698H189.112V157.302H178.509V146.698ZM189.112 146.698H199.716V157.302H189.112V146.698ZM210.319 146.698H220.923V157.302H210.319V146.698ZM220.923 146.698H231.526V157.302H220.923V146.698ZM273.941 146.698H284.544V157.302H273.941V146.698ZM40.6631 157.302H51.2666V167.905H40.6631V157.302ZM51.2666 157.302H61.8701V167.905H51.2666V157.302ZM61.8701 157.302H72.4736V167.905H61.8701V157.302ZM125.491 157.302H136.095V167.905H125.491V157.302ZM136.095 157.302H146.698V167.905H136.095V157.302ZM146.698 157.302H157.302V167.905H146.698V157.302ZM178.509 157.302H189.112V167.905H178.509V157.302ZM189.112 157.302H199.716V167.905H189.112V157.302ZM210.319 157.302H220.923V167.905H210.319V157.302ZM220.923 157.302H231.526V167.905H220.923V157.302ZM263.337 157.302H273.941V167.905H263.337V157.302ZM273.941 157.302H284.544V167.905H273.941V157.302ZM19.456 167.905H30.0595V178.509H19.456V167.905ZM30.0595 167.905H40.6631V178.509H30.0595V167.905ZM51.2666 167.905H61.8701V178.509H51.2666V167.905ZM72.4736 167.905H83.0771V178.509H72.4736V167.905ZM83.0771 167.905H93.6807V178.509H83.0771V167.905ZM104.284 167.905H114.888V178.509H104.284V167.905ZM114.888 167.905H125.491V178.509H114.888V167.905ZM125.491 167.905H136.095V178.509H125.491V167.905ZM146.698 167.905H157.302V178.509H146.698V167.905ZM178.509 167.905H189.112V178.509H178.509V167.905ZM189.112 167.905H199.716V178.509H189.112V167.905ZM210.319 167.905H220.923V178.509H210.319V167.905ZM242.13 167.905H252.733V178.509H242.13V167.905ZM252.733 167.905H263.337V178.509H252.733V167.905ZM273.941 167.905H284.544V178.509H273.941V167.905ZM40.6631 178.509H51.2666V189.112H40.6631V178.509ZM51.2666 178.509H61.8701V189.112H51.2666V178.509ZM61.8701 178.509H72.4736V189.112H61.8701V178.509ZM93.6807 178.509H104.284V189.112H93.6807V178.509ZM125.491 178.509H136.095V189.112H125.491V178.509ZM167.905 178.509H178.509V189.112H167.905V178.509ZM178.509 178.509H189.112V189.112H178.509V178.509ZM189.112 178.509H199.716V189.112H189.112V178.509ZM199.716 178.509H210.319V189.112H199.716V178.509ZM210.319 178.509H220.923V189.112H210.319V178.509ZM220.923 178.509H231.526V189.112H220.923V178.509ZM231.526 178.509H242.13V189.112H231.526V178.509ZM242.13 178.509H252.733V189.112H242.13V178.509ZM19.456 189.112H30.0595V199.716H19.456V189.112ZM30.0595 189.112H40.6631V199.716H30.0595V189.112ZM40.6631 189.112H51.2666V199.716H40.6631V189.112ZM61.8701 189.112H72.4736V199.716H61.8701V189.112ZM83.0771 189.112H93.6807V199.716H83.0771V189.112ZM104.284 189.112H114.888V199.716H104.284V189.112ZM136.095 189.112H146.698V199.716H136.095V189.112ZM189.112 189.112H199.716V199.716H189.112V189.112ZM199.716 189.112H210.319V199.716H199.716V189.112ZM210.319 189.112H220.923V199.716H210.319V189.112ZM220.923 189.112H231.526V199.716H220.923V189.112ZM231.526 189.112H242.13V199.716H231.526V189.112ZM263.337 189.112H273.941V199.716H263.337V189.112ZM104.284 199.716H114.888V210.319H104.284V199.716ZM114.888 199.716H125.491V210.319H114.888V199.716ZM125.491 199.716H136.095V210.319H125.491V199.716ZM136.095 199.716H146.698V210.319H136.095V199.716ZM157.302 199.716H167.905V210.319H157.302V199.716ZM167.905 199.716H178.509V210.319H167.905V199.716ZM189.112 199.716H199.716V210.319H189.112V199.716ZM231.526 199.716H242.13V210.319H231.526V199.716ZM273.941 199.716H284.544V210.319H273.941V199.716ZM19.456 210.319H30.0595V220.923H19.456V210.319ZM30.0595 210.319H40.6631V220.923H30.0595V210.319ZM40.6631 210.319H51.2666V220.923H40.6631V210.319ZM51.2666 210.319H61.8701V220.923H51.2666V210.319ZM61.8701 210.319H72.4736V220.923H61.8701V210.319ZM72.4736 210.319H83.0771V220.923H72.4736V210.319ZM83.0771 210.319H93.6807V220.923H83.0771V210.319ZM125.491 210.319H136.095V220.923H125.491V210.319ZM136.095 210.319H146.698V220.923H136.095V210.319ZM167.905 210.319H178.509V220.923H167.905V210.319ZM189.112 210.319H199.716V220.923H189.112V210.319ZM210.319 210.319H220.923V220.923H210.319V210.319ZM231.526 210.319H242.13V220.923H231.526V210.319ZM273.941 210.319H284.544V220.923H273.941V210.319ZM19.456 220.923H30.0595V231.526H19.456V220.923ZM83.0771 220.923H93.6807V231.526H83.0771V220.923ZM114.888 220.923H125.491V231.526H114.888V220.923ZM125.491 220.923H136.095V231.526H125.491V220.923ZM146.698 220.923H157.302V231.526H146.698V220.923ZM157.302 220.923H167.905V231.526H157.302V220.923ZM189.112 220.923H199.716V231.526H189.112V220.923ZM231.526 220.923H242.13V231.526H231.526V220.923ZM263.337 220.923H273.941V231.526H263.337V220.923ZM19.456 231.526H30.0595V242.13H19.456V231.526ZM40.6631 231.526H51.2666V242.13H40.6631V231.526ZM51.2666 231.526H61.8701V242.13H51.2666V231.526ZM61.8701 231.526H72.4736V242.13H61.8701V231.526ZM83.0771 231.526H93.6807V242.13H83.0771V231.526ZM114.888 231.526H125.491V242.13H114.888V231.526ZM125.491 231.526H136.095V242.13H125.491V231.526ZM167.905 231.526H178.509V242.13H167.905V231.526ZM178.509 231.526H189.112V242.13H178.509V231.526ZM189.112 231.526H199.716V242.13H189.112V231.526ZM199.716 231.526H210.319V242.13H199.716V231.526ZM210.319 231.526H220.923V242.13H210.319V231.526ZM220.923 231.526H231.526V242.13H220.923V231.526ZM231.526 231.526H242.13V242.13H231.526V231.526ZM263.337 231.526H273.941V242.13H263.337V231.526ZM273.941 231.526H284.544V242.13H273.941V231.526ZM19.456 242.13H30.0595V252.734H19.456V242.13ZM40.6631 242.13H51.2666V252.734H40.6631V242.13ZM51.2666 242.13H61.8701V252.734H51.2666V242.13ZM61.8701 242.13H72.4736V252.734H61.8701V242.13ZM83.0771 242.13H93.6807V252.734H83.0771V242.13ZM114.888 242.13H125.491V252.734H114.888V242.13ZM125.491 242.13H136.095V252.734H125.491V242.13ZM136.095 242.13H146.698V252.734H136.095V242.13ZM146.698 242.13H157.302V252.734H146.698V242.13ZM178.509 242.13H189.112V252.734H178.509V242.13ZM199.716 242.13H210.319V252.734H199.716V242.13ZM231.526 242.13H242.13V252.734H231.526V242.13ZM252.733 242.13H263.337V252.734H252.733V242.13ZM263.337 242.13H273.941V252.734H263.337V242.13ZM19.456 252.734H30.0595V263.337H19.456V252.734ZM40.6631 252.734H51.2666V263.337H40.6631V252.734ZM51.2666 252.734H61.8701V263.337H51.2666V252.734ZM61.8701 252.734H72.4736V263.337H61.8701V252.734ZM83.0771 252.734H93.6807V263.337H83.0771V252.734ZM104.284 252.734H114.888V263.337H104.284V252.734ZM157.302 252.734H167.905V263.337H157.302V252.734ZM167.905 252.734H178.509V263.337H167.905V252.734ZM178.509 252.734H189.112V263.337H178.509V252.734ZM189.112 252.734H199.716V263.337H189.112V252.734ZM199.716 252.734H210.319V263.337H199.716V252.734ZM220.923 252.734H231.526V263.337H220.923V252.734ZM231.526 252.734H242.13V263.337H231.526V252.734ZM242.13 252.734H252.733V263.337H242.13V252.734ZM263.337 252.734H273.941V263.337H263.337V252.734ZM273.941 252.734H284.544V263.337H273.941V252.734ZM19.456 263.337H30.0595V273.941H19.456V263.337ZM83.0771 263.337H93.6807V273.941H83.0771V263.337ZM104.284 263.337H114.888V273.941H104.284V263.337ZM114.888 263.337H125.491V273.941H114.888V263.337ZM125.491 263.337H136.095V273.941H125.491V263.337ZM157.302 263.337H167.905V273.941H157.302V263.337ZM189.112 263.337H199.716V273.941H189.112V263.337ZM199.716 263.337H210.319V273.941H199.716V263.337ZM210.319 263.337H220.923V273.941H210.319V263.337ZM220.923 263.337H231.526V273.941H220.923V263.337ZM231.526 263.337H242.13V273.941H231.526V263.337ZM19.456 273.941H30.0595V284.544H19.456V273.941ZM30.0595 273.941H40.6631V284.544H30.0595V273.941ZM40.6631 273.941H51.2666V284.544H40.6631V273.941ZM51.2666 273.941H61.8701V284.544H51.2666V273.941ZM61.8701 273.941H72.4736V284.544H61.8701V273.941ZM72.4736 273.941H83.0771V284.544H72.4736V273.941ZM83.0771 273.941H93.6807V284.544H83.0771V273.941ZM125.491 273.941H136.095V284.544H125.491V273.941ZM146.698 273.941H157.302V284.544H146.698V273.941ZM189.112 273.941H199.716V284.544H189.112V273.941ZM210.319 273.941H220.923V284.544H210.319V273.941ZM242.13 273.941H252.733V284.544H242.13V273.941ZM273.941 273.941H284.544V284.544H273.941V273.941Z" fill="#454E47"/>
</svg>
